<svg width="24" height="24" viewBox="0 0 24 24" fill="none" xmlns="http://www.w3.org/2000/svg">
<g clip-path="url(#clip0_73_2)">
<path d="M23 16.782C23.64 15.316 24 13.7 24 12C24 10.3 23.64 8.685 23 7.218V7H22.895C20.994 2.876 16.831 0 12 0C7.169 0 3.006 2.876 1.105 7H1V7.218C0.36 8.684 0 10.3 0 12C0 13.7 0.36 15.315 1 16.782V17H1.105C3.006 21.124 7.168 24 12 24C16.832 24 20.994 21.124 22.895 17H23V16.782ZM22.236 16H17.331C17.735 14.752 18 13.411 18 12C18 10.589 17.735 9.248 17.331 8H22.236C22.723 9.242 23 10.588 23 12C23 13.412 22.723 14.758 22.236 16ZM7.731 16C7.292 14.753 7 13.407 7 12C7 10.593 7.292 9.246 7.73 8H16.269C16.708 9.247 17 10.593 17 12C17 13.407 16.708 14.753 16.269 16H7.731ZM15.877 17C14.648 19.838 12.761 21.99 11.999 22.788C11.237 21.99 9.35 19.838 8.121 17H15.877ZM8.121 7C9.35 4.159 11.238 2.008 12 1.211C12.762 2.009 14.649 4.161 15.878 7H8.121ZM21.786 7H16.972C15.905 4.331 14.26 2.219 13.241 1.075C16.975 1.496 20.142 3.794 21.787 7H21.786ZM10.757 1.075C9.732 2.225 8.089 4.339 7.027 7H2.214C3.859 3.795 7.024 1.498 10.757 1.075ZM1.764 8H6.668C6.265 9.247 6 10.589 6 12C6 13.411 6.265 14.752 6.669 16H1.764C1.277 14.758 1 13.412 1 12C1 10.588 1.277 9.242 1.764 8ZM2.214 17H7.029C8.096 19.669 9.741 21.781 10.76 22.925C7.026 22.504 3.859 20.206 2.214 17ZM13.24 22.925C14.259 21.781 15.904 19.668 16.971 17H21.785C20.14 20.206 16.974 22.504 13.24 22.925Z" fill="black"/>
</g>
<defs>
<clipPath id="clip0_73_2">
<rect width="24" height="24" fill="white"/>
</clipPath>
</defs>
</svg>
